<svg width="1600" height="900" viewBox="0 0 1600 900" fill="none" xmlns="http://www.w3.org/2000/svg">
  <defs>
    <linearGradient id="bg" x1="120" y1="60" x2="1480" y2="840" gradientUnits="userSpaceOnUse">
      <stop stop-color="#FFF7EE"/>
      <stop offset="0.46" stop-color="#F7FBFF"/>
      <stop offset="1" stop-color="#F1FBF4"/>
    </linearGradient>
    <linearGradient id="panel" x1="96" y1="120" x2="1020" y2="760" gradientUnits="userSpaceOnUse">
      <stop stop-color="#FFFFFF"/>
      <stop offset="1" stop-color="#F8FBFD"/>
    </linearGradient>
    <linearGradient id="hero" x1="1070" y1="140" x2="1474" y2="706" gradientUnits="userSpaceOnUse">
      <stop stop-color="#101828"/>
      <stop offset="1" stop-color="#234268"/>
    </linearGradient>
    <linearGradient id="astroGlow" x1="0" y1="0" x2="1" y2="1">
      <stop stop-color="#FFE08B"/>
      <stop offset="0.58" stop-color="#FF9551"/>
      <stop offset="1" stop-color="#FF5A70"/>
    </linearGradient>
    <linearGradient id="trend" x1="0" y1="0" x2="1" y2="1">
      <stop stop-color="#7FA9FF"/>
      <stop offset="1" stop-color="#56D1B2"/>
    </linearGradient>
    <filter id="shadow" x="0" y="0" width="1600" height="900" filterUnits="userSpaceOnUse" color-interpolation-filters="sRGB">
      <feDropShadow dx="0" dy="18" stdDeviation="24" flood-color="#0F172A" flood-opacity="0.12"/>
    </filter>
  </defs>

  <rect width="1600" height="900" rx="40" fill="url(#bg)"/>
  <circle cx="1452" cy="132" r="108" fill="#FFE7CA"/>
  <circle cx="1482" cy="738" r="146" fill="#DDEFFF"/>
  <circle cx="188" cy="754" r="116" fill="#DEF4E6"/>

  <g filter="url(#shadow)">
    <rect x="88" y="112" width="944" height="660" rx="34" fill="url(#panel)"/>
    <rect x="1080" y="142" width="404" height="500" rx="34" fill="url(#hero)"/>
  </g>

  <rect x="88" y="112" width="944" height="88" rx="34" fill="#EEF5FB"/>
  <circle cx="146" cy="156" r="10" fill="#FB7185"/>
  <circle cx="178" cy="156" r="10" fill="#FBBF24"/>
  <circle cx="210" cy="156" r="10" fill="#34D399"/>

  <rect x="136" y="238" width="296" height="474" rx="28" fill="#111C34"/>
  <rect x="176" y="286" width="136" height="20" rx="10" fill="#88AEFF"/>
  <rect x="176" y="322" width="200" height="14" rx="7" fill="#7188B7"/>
  <rect x="176" y="350" width="176" height="14" rx="7" fill="#7188B7"/>
  <rect x="176" y="406" width="214" height="142" rx="22" fill="#192848"/>
  <path d="M220 488C242 448 264 408 288 366C314 428 340 490 366 552C337 526 294 528 270 556C262 524 248 502 220 488Z" fill="url(#astroGlow)"/>
  <circle cx="346" cy="412" r="8" fill="#FFD88E"/>
  <circle cx="366" cy="438" r="5" fill="#FFBC87"/>
  <rect x="176" y="582" width="96" height="14" rx="7" fill="#FFB973"/>
  <rect x="286" y="582" width="84" height="14" rx="7" fill="#95D8C2"/>
  <rect x="176" y="618" width="164" height="14" rx="7" fill="#7188B7"/>

  <rect x="468" y="238" width="518" height="160" rx="28" fill="#FFFFFF"/>
  <rect x="504" y="278" width="162" height="20" rx="10" fill="#DCE9FF"/>
  <rect x="504" y="316" width="392" height="14" rx="7" fill="#E7EEF8"/>
  <rect x="504" y="344" width="350" height="14" rx="7" fill="#E7EEF8"/>

  <rect x="468" y="426" width="518" height="286" rx="28" fill="#F8FBFF"/>
  <path d="M530 628C594 582 642 550 696 502C742 462 788 420 838 362" stroke="url(#trend)" stroke-width="18" stroke-linecap="round"/>
  <circle cx="530" cy="628" r="18" fill="#7CA8FF"/>
  <circle cx="696" cy="502" r="18" fill="#73B8F2"/>
  <circle cx="838" cy="362" r="18" fill="#5FD0B7"/>
  <rect x="560" y="458" width="140" height="14" rx="7" fill="#C4D7F5"/>
  <rect x="560" y="490" width="110" height="14" rx="7" fill="#D9E5F8"/>
  <rect x="734" y="540" width="144" height="14" rx="7" fill="#C4D7F5"/>
  <rect x="734" y="572" width="116" height="14" rx="7" fill="#D9E5F8"/>
  <rect x="848" y="302" width="94" height="40" rx="20" fill="#EAF8F1"/>
  <text x="895" y="328" text-anchor="middle" fill="#1E6F58" font-family="'Segoe UI', 'Arial', sans-serif" font-size="18" font-weight="700">UP</text>

  <circle cx="1284" cy="290" r="96" fill="#243858"/>
  <path d="M1216 328C1240 282 1264 236 1290 188C1318 258 1346 328 1374 398C1342 368 1294 370 1264 404C1254 366 1238 342 1216 328Z" fill="#FFF5E7"/>
  <circle cx="1360" cy="214" r="8" fill="#FFD590"/>
  <circle cx="1388" cy="248" r="6" fill="#FFBB91"/>
  <circle cx="1188" cy="250" r="7" fill="#FFE29E"/>

  <rect x="1128" y="446" width="308" height="78" rx="22" fill="#152641"/>
  <rect x="1160" y="474" width="120" height="18" rx="9" fill="#9FBFFF"/>
  <rect x="1298" y="474" width="102" height="18" rx="9" fill="#FFBA76"/>

  <rect x="1128" y="544" width="308" height="46" rx="23" fill="#2A4064"/>
  <rect x="1156" y="558" width="108" height="18" rx="9" fill="#D5E0F4"/>
  <rect x="1282" y="558" width="118" height="18" rx="9" fill="#8BB4FF"/>

  <rect x="90" y="790" width="1400" height="82" rx="28" fill="#FFFFFF" fill-opacity="0.84"/>
  <rect x="90" y="790" width="1400" height="82" rx="28" stroke="#D9E4F2"/>

  <text x="130" y="838" fill="#0F172A" font-family="'Segoe UI', 'Arial', sans-serif" font-size="50" font-weight="700">Why More Bloggers Choose Astro</text>
  <text x="130" y="864" fill="#475569" font-family="'Segoe UI', 'Arial', sans-serif" font-size="24" font-weight="500">Not just fast: clearer structure, cleaner output, easier long-term maintenance</text>
</svg>
