<svg width="1200" height="630" viewBox="0 0 1200 630" fill="none" xmlns="http://www.w3.org/2000/svg">
  <defs>
    <linearGradient id="bg" x1="92" y1="42" x2="1094" y2="590" gradientUnits="userSpaceOnUse">
      <stop stop-color="#111317"/>
      <stop offset="0.48" stop-color="#1A1E24"/>
      <stop offset="1" stop-color="#12161B"/>
    </linearGradient>
    <linearGradient id="red" x1="84" y1="86" x2="1108" y2="544" gradientUnits="userSpaceOnUse">
      <stop stop-color="#F05A45"/>
      <stop offset="1" stop-color="#B92F23"/>
    </linearGradient>
    <linearGradient id="panel" x1="108" y1="110" x2="1090" y2="520" gradientUnits="userSpaceOnUse">
      <stop stop-color="#171B20" stop-opacity="0.96"/>
      <stop offset="1" stop-color="#111418" stop-opacity="0.96"/>
    </linearGradient>
    <filter id="blur" x="0" y="0" width="1200" height="630" filterUnits="userSpaceOnUse" color-interpolation-filters="sRGB">
      <feGaussianBlur stdDeviation="42"/>
    </filter>
  </defs>

  <rect width="1200" height="630" fill="url(#bg)"/>

  <g filter="url(#blur)" opacity="0.2">
    <circle cx="160" cy="114" r="92" fill="#FF5D4A"/>
    <circle cx="1028" cy="152" r="96" fill="#FF795D"/>
    <circle cx="896" cy="504" r="112" fill="#3B82F6"/>
  </g>

  <rect x="84" y="86" width="1032" height="458" rx="30" fill="url(#red)"/>
  <rect x="108" y="110" width="984" height="410" rx="24" fill="url(#panel)" stroke="white" stroke-opacity="0.08"/>

  <rect x="150" y="156" width="336" height="316" rx="24" fill="#0F1216" stroke="white" stroke-opacity="0.08"/>

  <circle cx="318" cy="242" r="72" fill="#F05A45"/>
  <path d="M318 204V252" stroke="white" stroke-width="14" stroke-linecap="round"/>
  <circle cx="318" cy="282" r="8" fill="white"/>

  <rect x="190" y="352" width="256" height="18" rx="9" fill="#2D3640"/>
  <rect x="190" y="384" width="198" height="16" rx="8" fill="#25303A"/>
  <rect x="190" y="416" width="144" height="14" rx="7" fill="#F05A45"/>

  <text x="540" y="168" fill="#FFB3AA" font-size="22" font-weight="700" font-family="Segoe UI, Arial, sans-serif" letter-spacing="2">SECURITY ALERT · MAY 2026</text>
  <text x="540" y="252" fill="white" font-size="54" font-weight="800" font-family="Segoe UI, Arial, sans-serif">Edge 密码“裸奔”</text>
  <text x="540" y="315" fill="white" font-size="54" font-weight="800" font-family="Segoe UI, Arial, sans-serif">Chrome 是否也中招？</text>
  <text x="540" y="378" fill="#D8DEE5" font-size="28" font-weight="700" font-family="Segoe UI, Arial, sans-serif">漏洞解析 + 2 步紧急防护</text>

  <rect x="540" y="420" width="412" height="56" rx="28" fill="#F05A45"/>
  <text x="746" y="456" text-anchor="middle" fill="white" font-size="24" font-weight="800" font-family="Segoe UI, Arial, sans-serif">BROWSER PASSWORD RISK</text>
</svg>
