<svg width="1600" height="900" viewBox="0 0 1600 900" fill="none" xmlns="http://www.w3.org/2000/svg">
  <defs>
    <linearGradient id="bg" x1="88" y1="58" x2="1508" y2="846" gradientUnits="userSpaceOnUse">
      <stop stop-color="#FFF8EE"/>
      <stop offset="0.5" stop-color="#F7FBFF"/>
      <stop offset="1" stop-color="#EEF9F2"/>
    </linearGradient>
    <linearGradient id="panel" x1="96" y1="112" x2="1012" y2="770" gradientUnits="userSpaceOnUse">
      <stop stop-color="#FFFFFF"/>
      <stop offset="1" stop-color="#F8FBFD"/>
    </linearGradient>
    <linearGradient id="hero" x1="1080" y1="142" x2="1470" y2="704" gradientUnits="userSpaceOnUse">
      <stop stop-color="#101828"/>
      <stop offset="1" stop-color="#1E3A5F"/>
    </linearGradient>
    <linearGradient id="trend" x1="0" y1="0" x2="1" y2="1">
      <stop stop-color="#7EA8FF"/>
      <stop offset="1" stop-color="#5BD1B5"/>
    </linearGradient>
    <filter id="shadow" x="0" y="0" width="1600" height="900" filterUnits="userSpaceOnUse" color-interpolation-filters="sRGB">
      <feDropShadow dx="0" dy="18" stdDeviation="24" flood-color="#0F172A" flood-opacity="0.12"/>
    </filter>
  </defs>

  <rect width="1600" height="900" rx="40" fill="url(#bg)"/>
  <circle cx="1438" cy="130" r="108" fill="#FFE7C8"/>
  <circle cx="1490" cy="736" r="146" fill="#DDEEFF"/>
  <circle cx="180" cy="748" r="118" fill="#DFF4E8"/>

  <g filter="url(#shadow)">
    <rect x="92" y="110" width="930" height="654" rx="34" fill="url(#panel)"/>
    <rect x="1084" y="142" width="398" height="496" rx="34" fill="url(#hero)"/>
  </g>

  <rect x="92" y="110" width="930" height="86" rx="34" fill="#EEF5FB"/>
  <circle cx="150" cy="153" r="10" fill="#FB7185"/>
  <circle cx="182" cy="153" r="10" fill="#FBBF24"/>
  <circle cx="214" cy="153" r="10" fill="#34D399"/>

  <rect x="136" y="238" width="280" height="470" rx="28" fill="#111C34"/>
  <rect x="174" y="284" width="122" height="20" rx="10" fill="#89AEFF"/>
  <rect x="174" y="320" width="184" height="14" rx="7" fill="#738AB7"/>
  <rect x="174" y="348" width="162" height="14" rx="7" fill="#738AB7"/>
  <rect x="174" y="396" width="206" height="140" rx="22" fill="#192847"/>
  <circle cx="278" cy="466" r="48" fill="#243B60"/>
  <circle cx="278" cy="466" r="28" stroke="#CFE0FF" stroke-width="12"/>
  <rect x="310" y="496" width="52" height="14" rx="7" transform="rotate(45 310 496)" fill="#8FB2FF"/>
  <rect x="174" y="568" width="90" height="14" rx="7" fill="#FFB774"/>
  <rect x="278" y="568" width="78" height="14" rx="7" fill="#90D8C1"/>
  <rect x="174" y="602" width="146" height="14" rx="7" fill="#738AB7"/>

  <rect x="456" y="238" width="522" height="158" rx="28" fill="#FFFFFF"/>
  <rect x="494" y="278" width="164" height="20" rx="10" fill="#DAE8FF"/>
  <rect x="494" y="316" width="394" height="14" rx="7" fill="#E7EEF8"/>
  <rect x="494" y="344" width="352" height="14" rx="7" fill="#E7EEF8"/>

  <rect x="456" y="424" width="522" height="284" rx="28" fill="#F8FBFF"/>
  <path d="M528 630C580 594 628 560 676 514C724 470 772 422 824 372C852 346 888 318 928 294" stroke="url(#trend)" stroke-width="18" stroke-linecap="round"/>
  <circle cx="528" cy="630" r="18" fill="#7EA8FF"/>
  <circle cx="676" cy="514" r="18" fill="#70B9F0"/>
  <circle cx="824" cy="372" r="18" fill="#5ED0B7"/>
  <circle cx="928" cy="294" r="18" fill="#4DC89E"/>
  <rect x="564" y="458" width="130" height="14" rx="7" fill="#C4D6F4"/>
  <rect x="564" y="490" width="104" height="14" rx="7" fill="#D8E4F8"/>
  <rect x="720" y="542" width="140" height="14" rx="7" fill="#C4D6F4"/>
  <rect x="720" y="574" width="112" height="14" rx="7" fill="#D8E4F8"/>
  <rect x="850" y="316" width="94" height="40" rx="20" fill="#EAF8F1"/>
  <text x="897" y="342" text-anchor="middle" fill="#1E7058" font-family="'Segoe UI', 'Arial', sans-serif" font-size="18" font-weight="700">SEO</text>

  <circle cx="1282" cy="290" r="96" fill="#243858"/>
  <rect x="1220" y="230" width="124" height="18" rx="9" fill="#9DBEFF"/>
  <rect x="1220" y="264" width="96" height="18" rx="9" fill="#D4E0F5"/>
  <rect x="1220" y="304" width="150" height="18" rx="9" fill="#FFBC77"/>
  <rect x="1220" y="338" width="118" height="18" rx="9" fill="#8FD5C0"/>

  <rect x="1128" y="446" width="308" height="78" rx="22" fill="#152641"/>
  <rect x="1160" y="474" width="124" height="18" rx="9" fill="#9FBFFF"/>
  <rect x="1300" y="474" width="100" height="18" rx="9" fill="#FFBA75"/>

  <rect x="1128" y="544" width="308" height="46" rx="23" fill="#2A4064"/>
  <rect x="1156" y="558" width="108" height="18" rx="9" fill="#D4E0F4"/>
  <rect x="1282" y="558" width="116" height="18" rx="9" fill="#8BB4FF"/>

  <rect x="92" y="790" width="1400" height="82" rx="28" fill="#FFFFFF" fill-opacity="0.84"/>
  <rect x="92" y="790" width="1400" height="82" rx="28" stroke="#D9E4F2"/>

  <text x="130" y="838" fill="#0F172A" font-family="'Segoe UI', 'Arial', sans-serif" font-size="50" font-weight="700">Blog SEO Basics</text>
  <text x="130" y="864" fill="#475569" font-family="'Segoe UI', 'Arial', sans-serif" font-size="24" font-weight="500">Start with titles, structure, internal links, indexing, and consistency</text>
</svg>
