<svg width="1600" height="900" viewBox="0 0 1600 900" fill="none" xmlns="http://www.w3.org/2000/svg">
  <defs>
    <linearGradient id="bg" x1="118" y1="72" x2="1490" y2="834" gradientUnits="userSpaceOnUse">
      <stop stop-color="#F8FBFF"/>
      <stop offset="0.5" stop-color="#E8F0FF"/>
      <stop offset="1" stop-color="#EAF9F0"/>
    </linearGradient>
    <linearGradient id="card" x1="88" y1="108" x2="1042" y2="794" gradientUnits="userSpaceOnUse">
      <stop stop-color="#FFFFFF"/>
      <stop offset="1" stop-color="#F7FAFF"/>
    </linearGradient>
    <linearGradient id="panel" x1="1096" y1="172" x2="1488" y2="734" gradientUnits="userSpaceOnUse">
      <stop stop-color="#0F172A"/>
      <stop offset="1" stop-color="#1E3657"/>
    </linearGradient>
    <linearGradient id="backupAccent" x1="1180" y1="270" x2="1388" y2="474" gradientUnits="userSpaceOnUse">
      <stop stop-color="#8ED2FF"/>
      <stop offset="1" stop-color="#4FD39B"/>
    </linearGradient>
    <filter id="shadow" x="0" y="0" width="1600" height="900" filterUnits="userSpaceOnUse" color-interpolation-filters="sRGB">
      <feDropShadow dx="0" dy="22" stdDeviation="26" flood-color="#1E293B" flood-opacity="0.12"/>
    </filter>
  </defs>

  <rect width="1600" height="900" rx="40" fill="url(#bg)"/>
  <circle cx="1358" cy="140" r="120" fill="#DDEBFF"/>
  <circle cx="1484" cy="744" r="148" fill="#DCF6E3"/>
  <circle cx="176" cy="748" r="102" fill="#FFE8C6"/>

  <g filter="url(#shadow)">
    <rect x="88" y="108" width="952" height="684" rx="34" fill="url(#card)"/>
  </g>
  <rect x="88" y="108" width="952" height="84" rx="34" fill="#EAF2FB"/>
  <circle cx="146" cy="150" r="10" fill="#FB7185"/>
  <circle cx="178" cy="150" r="10" fill="#FBBF24"/>
  <circle cx="210" cy="150" r="10" fill="#34D399"/>

  <rect x="138" y="236" width="394" height="416" rx="28" fill="#F8FBFF"/>
  <rect x="176" y="278" width="188" height="20" rx="10" fill="#A8C1E8"/>
  <rect x="176" y="316" width="142" height="16" rx="8" fill="#D7E4F5"/>

  <rect x="176" y="396" width="316" height="186" rx="24" fill="#EAF2FF"/>
  <rect x="206" y="430" width="108" height="126" rx="22" fill="#FFFFFF"/>
  <rect x="228" y="454" width="64" height="12" rx="6" fill="#8BB3FF"/>
  <rect x="228" y="478" width="48" height="12" rx="6" fill="#BED3FA"/>
  <path d="M248 520L260 532L282 506" stroke="#059669" stroke-width="10" stroke-linecap="round" stroke-linejoin="round"/>
  <rect x="334" y="430" width="126" height="126" rx="22" fill="#FFFFFF"/>
  <path d="M366 474H430" stroke="#5B8CFF" stroke-width="12" stroke-linecap="round"/>
  <path d="M366 506H416" stroke="#5B8CFF" stroke-width="12" stroke-linecap="round"/>
  <path d="M366 538H404" stroke="#5B8CFF" stroke-width="12" stroke-linecap="round"/>

  <rect x="556" y="236" width="432" height="416" rx="28" fill="#FFFFFF"/>
  <rect x="598" y="280" width="182" height="18" rx="9" fill="#98BBF5"/>
  <rect x="598" y="316" width="148" height="16" rx="8" fill="#D4E0F2"/>

  <rect x="598" y="388" width="350" height="78" rx="18" fill="#F7FAFF"/>
  <rect x="628" y="416" width="144" height="18" rx="9" fill="#AED2FF"/>
  <rect x="804" y="410" width="108" height="34" rx="17" fill="#DBEAFE"/>
  <path d="M832 427H886" stroke="#2563EB" stroke-width="12" stroke-linecap="round"/>

  <rect x="598" y="492" width="350" height="78" rx="18" fill="#F7FAFF"/>
  <rect x="628" y="520" width="172" height="18" rx="9" fill="#D7EDCC"/>
  <rect x="824" y="514" width="90" height="34" rx="17" fill="#DCFCE7"/>
  <path d="M848 531L864 547L892 519" stroke="#059669" stroke-width="12" stroke-linecap="round" stroke-linejoin="round"/>

  <g filter="url(#shadow)">
    <rect x="1096" y="172" width="392" height="560" rx="34" fill="url(#panel)"/>
  </g>
  <rect x="1140" y="230" width="220" height="24" rx="12" fill="#8FB6FF"/>
  <rect x="1140" y="272" width="258" height="14" rx="7" fill="#AAB9D7"/>
  <rect x="1140" y="306" width="206" height="14" rx="7" fill="#AAB9D7"/>

  <circle cx="1288" cy="390" r="94" fill="url(#backupAccent)"/>
  <rect x="1232" y="336" width="112" height="112" rx="28" fill="#F7FFFB"/>
  <path d="M1260 396L1282 418L1318 372" stroke="#1F8A70" stroke-width="14" stroke-linecap="round" stroke-linejoin="round"/>
  <path d="M1288 336V304" stroke="#D8FFF0" stroke-width="12" stroke-linecap="round"/>
  <path d="M1232 392H1200" stroke="#D8FFF0" stroke-width="12" stroke-linecap="round"/>

  <rect x="1140" y="548" width="304" height="44" rx="22" fill="#24344F"/>
  <rect x="1168" y="561" width="114" height="18" rx="9" fill="#D1DDF2"/>
  <rect x="1298" y="561" width="112" height="18" rx="9" fill="#9DC3FF"/>

  <text x="132" y="710" fill="#0F172A" font-family="'Segoe UI', 'Microsoft YaHei', sans-serif" font-size="50" font-weight="700">
    Windows 备份技巧
  </text>
  <text x="132" y="770" fill="#334155" font-family="'Segoe UI', 'Microsoft YaHei', sans-serif" font-size="30" font-weight="500">
    原生方案整理 · 更适合文件与系统的日常保护
  </text>
</svg>
