<svg width="1600" height="900" viewBox="0 0 1600 900" fill="none" xmlns="http://www.w3.org/2000/svg">
  <defs>
    <linearGradient id="bg" x1="120" y1="70" x2="1492" y2="834" gradientUnits="userSpaceOnUse">
      <stop stop-color="#F8FBFF"/>
      <stop offset="0.5" stop-color="#E7F0FF"/>
      <stop offset="1" stop-color="#FFF1E4"/>
    </linearGradient>
    <linearGradient id="card" x1="88" y1="108" x2="1044" y2="794" gradientUnits="userSpaceOnUse">
      <stop stop-color="#FFFFFF"/>
      <stop offset="1" stop-color="#F7FAFF"/>
    </linearGradient>
    <linearGradient id="panel" x1="1098" y1="170" x2="1488" y2="734" gradientUnits="userSpaceOnUse">
      <stop stop-color="#0F172A"/>
      <stop offset="1" stop-color="#1D3455"/>
    </linearGradient>
    <linearGradient id="speedAccent" x1="1180" y1="268" x2="1388" y2="472" gradientUnits="userSpaceOnUse">
      <stop stop-color="#8BC9FF"/>
      <stop offset="1" stop-color="#FF9A62"/>
    </linearGradient>
    <filter id="shadow" x="0" y="0" width="1600" height="900" filterUnits="userSpaceOnUse" color-interpolation-filters="sRGB">
      <feDropShadow dx="0" dy="22" stdDeviation="26" flood-color="#1E293B" flood-opacity="0.12"/>
    </filter>
  </defs>

  <rect width="1600" height="900" rx="40" fill="url(#bg)"/>
  <circle cx="1358" cy="140" r="120" fill="#DCEBFF"/>
  <circle cx="1486" cy="744" r="150" fill="#FFE4CE"/>
  <circle cx="176" cy="748" r="102" fill="#E3F7EA"/>

  <g filter="url(#shadow)">
    <rect x="88" y="108" width="952" height="684" rx="34" fill="url(#card)"/>
  </g>
  <rect x="88" y="108" width="952" height="84" rx="34" fill="#EAF2FB"/>
  <circle cx="146" cy="150" r="10" fill="#FB7185"/>
  <circle cx="178" cy="150" r="10" fill="#FBBF24"/>
  <circle cx="210" cy="150" r="10" fill="#34D399"/>

  <rect x="138" y="236" width="394" height="416" rx="28" fill="#F8FBFF"/>
  <rect x="176" y="278" width="196" height="20" rx="10" fill="#A6C1E8"/>
  <rect x="176" y="316" width="152" height="16" rx="8" fill="#D7E4F5"/>

  <rect x="176" y="396" width="316" height="186" rx="24" fill="#FFFFFF"/>
  <path d="M216 546C252 498 286 450 320 402C356 450 392 498 428 546" stroke="#8FB6FF" stroke-width="20" stroke-linecap="round" stroke-linejoin="round"/>
  <path d="M216 546H428" stroke="#D7E5FA" stroke-width="20" stroke-linecap="round"/>
  <circle cx="320" cy="468" r="26" fill="#DBEAFE"/>
  <path d="M320 448V470L338 482" stroke="#2563EB" stroke-width="8" stroke-linecap="round" stroke-linejoin="round"/>
  <rect x="216" y="566" width="78" height="16" rx="8" fill="#FFB77A"/>
  <rect x="306" y="566" width="104" height="16" rx="8" fill="#9CD1FF"/>

  <rect x="556" y="236" width="432" height="416" rx="28" fill="#FFFFFF"/>
  <rect x="598" y="280" width="182" height="18" rx="9" fill="#98BBF5"/>
  <rect x="598" y="316" width="148" height="16" rx="8" fill="#D4E0F2"/>

  <rect x="598" y="388" width="350" height="78" rx="18" fill="#F7FAFF"/>
  <rect x="628" y="416" width="146" height="18" rx="9" fill="#AED2FF"/>
  <rect x="804" y="410" width="108" height="34" rx="17" fill="#DBEAFE"/>
  <path d="M832 427H886" stroke="#2563EB" stroke-width="12" stroke-linecap="round"/>

  <rect x="598" y="492" width="350" height="78" rx="18" fill="#F7FAFF"/>
  <rect x="628" y="520" width="170" height="18" rx="9" fill="#FFD4B0"/>
  <rect x="824" y="514" width="90" height="34" rx="17" fill="#FFF1E4"/>
  <path d="M850 531H888" stroke="#F97316" stroke-width="12" stroke-linecap="round"/>

  <g filter="url(#shadow)">
    <rect x="1096" y="172" width="392" height="560" rx="34" fill="url(#panel)"/>
  </g>
  <rect x="1140" y="230" width="220" height="24" rx="12" fill="#8FB6FF"/>
  <rect x="1140" y="272" width="258" height="14" rx="7" fill="#AAB9D7"/>
  <rect x="1140" y="306" width="206" height="14" rx="7" fill="#AAB9D7"/>

  <circle cx="1288" cy="392" r="94" fill="url(#speedAccent)"/>
  <path d="M1228 428C1240 384 1276 350 1324 350C1350 350 1374 360 1390 378" stroke="#FFF7EE" stroke-width="16" stroke-linecap="round"/>
  <path d="M1288 392L1340 346" stroke="#FFF7EE" stroke-width="14" stroke-linecap="round"/>
  <circle cx="1288" cy="392" r="12" fill="#FFF7EE"/>

  <rect x="1140" y="548" width="304" height="44" rx="22" fill="#24344F"/>
  <rect x="1168" y="561" width="114" height="18" rx="9" fill="#D1DDF2"/>
  <rect x="1298" y="561" width="112" height="18" rx="9" fill="#9DC3FF"/>

  <text x="132" y="710" fill="#0F172A" font-family="'Segoe UI', 'Microsoft YaHei', sans-serif" font-size="50" font-weight="700">
    电脑卡顿自救指南
  </text>
  <text x="132" y="770" fill="#334155" font-family="'Segoe UI', 'Microsoft YaHei', sans-serif" font-size="30" font-weight="500">
    Windows 原生优化技巧 · 更适合老设备的日常提速
  </text>
</svg>
