<svg width="1600" height="900" viewBox="0 0 1600 900" fill="none" xmlns="http://www.w3.org/2000/svg">
  <defs>
    <linearGradient id="bg" x1="120" y1="70" x2="1490" y2="840" gradientUnits="userSpaceOnUse">
      <stop stop-color="#F4FBFF"/>
      <stop offset="0.54" stop-color="#E3EEFF"/>
      <stop offset="1" stop-color="#EEFCEB"/>
    </linearGradient>
    <linearGradient id="windowPanel" x1="84" y1="104" x2="1012" y2="770" gradientUnits="userSpaceOnUse">
      <stop stop-color="#FFFFFF"/>
      <stop offset="1" stop-color="#F4F8FF"/>
    </linearGradient>
    <linearGradient id="rightCard" x1="1080" y1="170" x2="1488" y2="736" gradientUnits="userSpaceOnUse">
      <stop stop-color="#0F172A"/>
      <stop offset="1" stop-color="#1D3557"/>
    </linearGradient>
    <linearGradient id="accent" x1="1140" y1="420" x2="1440" y2="600" gradientUnits="userSpaceOnUse">
      <stop stop-color="#7DD3FC"/>
      <stop offset="1" stop-color="#34D399"/>
    </linearGradient>
    <filter id="shadow" x="0" y="0" width="1600" height="900" filterUnits="userSpaceOnUse" color-interpolation-filters="sRGB">
      <feDropShadow dx="0" dy="22" stdDeviation="26" flood-color="#1E293B" flood-opacity="0.12"/>
    </filter>
  </defs>

  <rect width="1600" height="900" rx="40" fill="url(#bg)"/>
  <circle cx="1342" cy="136" r="118" fill="#D6EEFF"/>
  <circle cx="1496" cy="754" r="140" fill="#DFF7D7"/>
  <circle cx="176" cy="754" r="98" fill="#FFE6C7"/>

  <g opacity="0.72">
    <path d="M102 188C102 159.281 125.281 136 154 136H544C572.719 136 596 159.281 596 188V212H102V188Z" fill="#CFE2FF"/>
    <path d="M122 246C122 221.699 141.699 202 166 202H560C584.301 202 604 221.699 604 246V266H122V246Z" fill="#B7D1F5"/>
  </g>

  <g filter="url(#shadow)">
    <rect x="88" y="108" width="948" height="684" rx="34" fill="url(#windowPanel)"/>
  </g>

  <rect x="88" y="108" width="948" height="84" rx="34" fill="#EAF2FB"/>
  <circle cx="146" cy="150" r="10" fill="#FB7185"/>
  <circle cx="178" cy="150" r="10" fill="#FBBF24"/>
  <circle cx="210" cy="150" r="10" fill="#34D399"/>

  <rect x="138" y="236" width="388" height="418" rx="28" fill="#F8FBFF"/>
  <rect x="174" y="278" width="188" height="20" rx="10" fill="#A5BFE5"/>
  <rect x="174" y="318" width="142" height="16" rx="8" fill="#D6E4F5"/>
  <rect x="174" y="354" width="124" height="16" rx="8" fill="#D6E4F5"/>

  <rect x="174" y="416" width="316" height="128" rx="24" fill="#E8F2FF"/>
  <path d="M214 458H390" stroke="#8BB8FF" stroke-width="18" stroke-linecap="round"/>
  <path d="M214 500H350" stroke="#B8D3FF" stroke-width="18" stroke-linecap="round"/>
  <path d="M414 442V522" stroke="#5B9DFF" stroke-width="22" stroke-linecap="round"/>
  <path d="M458 444V522" stroke="#D95C5C" stroke-width="22" stroke-linecap="round"/>
  <path d="M390 462L482 554" stroke="#F97316" stroke-width="22" stroke-linecap="round"/>
  <path d="M482 462L390 554" stroke="#F97316" stroke-width="22" stroke-linecap="round"/>

  <rect x="554" y="236" width="434" height="418" rx="28" fill="#FFFFFF"/>
  <rect x="596" y="280" width="188" height="18" rx="9" fill="#95B9F5"/>
  <rect x="596" y="320" width="152" height="16" rx="8" fill="#D4E0F2"/>

  <rect x="596" y="394" width="352" height="78" rx="18" fill="#F7FAFF"/>
  <rect x="626" y="424" width="146" height="18" rx="9" fill="#B5D0FF"/>
  <rect x="808" y="416" width="106" height="34" rx="17" fill="#DBEAFE"/>
  <path d="M836 433H886" stroke="#2563EB" stroke-width="12" stroke-linecap="round"/>

  <rect x="596" y="498" width="352" height="78" rx="18" fill="#F7FAFF"/>
  <rect x="626" y="528" width="176" height="18" rx="9" fill="#CDEACC"/>
  <rect x="824" y="520" width="90" height="34" rx="17" fill="#DCFCE7"/>
  <path d="M848 536L864 552L892 524" stroke="#059669" stroke-width="12" stroke-linecap="round" stroke-linejoin="round"/>

  <g filter="url(#shadow)">
    <rect x="1096" y="172" width="392" height="560" rx="34" fill="url(#rightCard)"/>
  </g>

  <rect x="1140" y="230" width="220" height="24" rx="12" fill="#8FB6FF"/>
  <rect x="1140" y="272" width="260" height="14" rx="7" fill="#A9B9D7"/>
  <rect x="1140" y="306" width="208" height="14" rx="7" fill="#A9B9D7"/>

  <rect x="1140" y="376" width="304" height="166" rx="26" fill="#12243B"/>
  <rect x="1172" y="410" width="240" height="100" rx="22" fill="url(#accent)"/>
  <path d="M1248 390V528" stroke="#E2F3FF" stroke-width="22" stroke-linecap="round"/>
  <path d="M1178 460H1318" stroke="#E2F3FF" stroke-width="22" stroke-linecap="round"/>
  <path d="M1340 422L1394 476L1452 416" stroke="#8EF0C2" stroke-width="18" stroke-linecap="round" stroke-linejoin="round"/>

  <rect x="1140" y="580" width="304" height="44" rx="22" fill="#24344F"/>
  <rect x="1168" y="593" width="114" height="18" rx="9" fill="#D1DDF2"/>
  <rect x="1298" y="593" width="112" height="18" rx="9" fill="#9CC2FF"/>

  <text x="132" y="712" fill="#0F172A" font-family="'Segoe UI', 'Microsoft YaHei', sans-serif" font-size="52" font-weight="700">
    Windows 11 限制外部设备写入
  </text>
  <text x="132" y="772" fill="#334155" font-family="'Segoe UI', 'Microsoft YaHei', sans-serif" font-size="30" font-weight="500">
    保留本地复制功能 · 适合 U 盘与移动硬盘只读场景
  </text>
</svg>
