<svg width="1600" height="900" viewBox="0 0 1600 900" fill="none" xmlns="http://www.w3.org/2000/svg">
  <defs>
    <linearGradient id="bg" x1="120" y1="70" x2="1490" y2="834" gradientUnits="userSpaceOnUse">
      <stop stop-color="#F7FBFF"/>
      <stop offset="0.5" stop-color="#E7F0FF"/>
      <stop offset="1" stop-color="#EEF8EC"/>
    </linearGradient>
    <linearGradient id="windowCard" x1="88" y1="108" x2="1042" y2="794" gradientUnits="userSpaceOnUse">
      <stop stop-color="#FFFFFF"/>
      <stop offset="1" stop-color="#F6FAFF"/>
    </linearGradient>
    <linearGradient id="panel" x1="1096" y1="172" x2="1488" y2="734" gradientUnits="userSpaceOnUse">
      <stop stop-color="#0F172A"/>
      <stop offset="1" stop-color="#1D3557"/>
    </linearGradient>
    <linearGradient id="searchAccent" x1="1180" y1="268" x2="1382" y2="470" gradientUnits="userSpaceOnUse">
      <stop stop-color="#8FD0FF"/>
      <stop offset="1" stop-color="#5B8CFF"/>
    </linearGradient>
    <filter id="shadow" x="0" y="0" width="1600" height="900" filterUnits="userSpaceOnUse" color-interpolation-filters="sRGB">
      <feDropShadow dx="0" dy="22" stdDeviation="26" flood-color="#1E293B" flood-opacity="0.12"/>
    </filter>
  </defs>

  <rect width="1600" height="900" rx="40" fill="url(#bg)"/>
  <circle cx="1356" cy="140" r="122" fill="#DDEBFF"/>
  <circle cx="1488" cy="744" r="146" fill="#DDF5E5"/>
  <circle cx="176" cy="752" r="102" fill="#FFE8C6"/>

  <g filter="url(#shadow)">
    <rect x="88" y="108" width="952" height="684" rx="34" fill="url(#windowCard)"/>
  </g>
  <rect x="88" y="108" width="952" height="84" rx="34" fill="#EAF2FB"/>
  <circle cx="146" cy="150" r="10" fill="#FB7185"/>
  <circle cx="178" cy="150" r="10" fill="#FBBF24"/>
  <circle cx="210" cy="150" r="10" fill="#34D399"/>

  <rect x="138" y="236" width="392" height="416" rx="28" fill="#F8FBFF"/>
  <rect x="174" y="278" width="208" height="20" rx="10" fill="#A6C0E8"/>
  <rect x="174" y="318" width="156" height="16" rx="8" fill="#D7E4F5"/>
  <rect x="174" y="354" width="128" height="16" rx="8" fill="#D7E4F5"/>

  <rect x="174" y="416" width="318" height="182" rx="24" fill="#EAF2FF"/>
  <rect x="206" y="446" width="254" height="42" rx="21" fill="#FFFFFF"/>
  <circle cx="238" cy="467" r="16" fill="url(#searchAccent)"/>
  <path d="M248 478L264 494" stroke="#5B8CFF" stroke-width="8" stroke-linecap="round"/>
  <rect x="272" y="458" width="154" height="18" rx="9" fill="#C8D9F6"/>

  <rect x="206" y="510" width="118" height="56" rx="18" fill="#FFFFFF"/>
  <rect x="224" y="528" width="82" height="12" rx="6" fill="#8DB4FF"/>
  <rect x="340" y="510" width="120" height="56" rx="18" fill="#FFFFFF"/>
  <rect x="358" y="528" width="84" height="12" rx="6" fill="#A7DCC8"/>

  <rect x="556" y="236" width="432" height="416" rx="28" fill="#FFFFFF"/>
  <rect x="598" y="278" width="182" height="18" rx="9" fill="#97BAF5"/>
  <rect x="598" y="314" width="148" height="16" rx="8" fill="#D4E0F2"/>

  <rect x="598" y="388" width="350" height="78" rx="18" fill="#F7FAFF"/>
  <rect x="628" y="416" width="132" height="18" rx="9" fill="#AED2FF"/>
  <rect x="784" y="410" width="132" height="34" rx="17" fill="#DBEAFE"/>
  <path d="M812 427H888" stroke="#2563EB" stroke-width="12" stroke-linecap="round"/>

  <rect x="598" y="492" width="350" height="78" rx="18" fill="#F7FAFF"/>
  <rect x="628" y="520" width="168" height="18" rx="9" fill="#D7EDCC"/>
  <rect x="824" y="514" width="90" height="34" rx="17" fill="#DCFCE7"/>
  <path d="M848 531L864 547L892 519" stroke="#059669" stroke-width="12" stroke-linecap="round" stroke-linejoin="round"/>

  <g filter="url(#shadow)">
    <rect x="1096" y="172" width="392" height="560" rx="34" fill="url(#panel)"/>
  </g>
  <rect x="1140" y="230" width="224" height="24" rx="12" fill="#8EB6FF"/>
  <rect x="1140" y="272" width="260" height="14" rx="7" fill="#A9B9D7"/>
  <rect x="1140" y="306" width="204" height="14" rx="7" fill="#A9B9D7"/>

  <circle cx="1290" cy="404" r="92" fill="url(#searchAccent)"/>
  <circle cx="1272" cy="386" r="48" stroke="#F8FBFF" stroke-width="18"/>
  <path d="M1308 422L1360 474" stroke="#F8FBFF" stroke-width="18" stroke-linecap="round"/>

  <rect x="1140" y="548" width="304" height="44" rx="22" fill="#24344F"/>
  <rect x="1168" y="561" width="112" height="18" rx="9" fill="#D1DDF2"/>
  <rect x="1298" y="561" width="112" height="18" rx="9" fill="#9DC3FF"/>

  <text x="132" y="710" fill="#0F172A" font-family="'Segoe UI', 'Microsoft YaHei', sans-serif" font-size="50" font-weight="700">
    Windows 文件搜索工具对比
  </text>
  <text x="132" y="770" fill="#334155" font-family="'Segoe UI', 'Microsoft YaHei', sans-serif" font-size="30" font-weight="500">
    Everything / Listary / AnyTXT Searcher
  </text>
</svg>
