<svg width="1600" height="900" viewBox="0 0 1600 900" fill="none" xmlns="http://www.w3.org/2000/svg">
  <defs>
    <linearGradient id="bg" x1="120" y1="72" x2="1492" y2="836" gradientUnits="userSpaceOnUse">
      <stop stop-color="#F8FBFF"/>
      <stop offset="0.5" stop-color="#EAF1FF"/>
      <stop offset="1" stop-color="#FFF1E4"/>
    </linearGradient>
    <linearGradient id="card" x1="88" y1="108" x2="1044" y2="794" gradientUnits="userSpaceOnUse">
      <stop stop-color="#FFFFFF"/>
      <stop offset="1" stop-color="#F7FAFF"/>
    </linearGradient>
    <linearGradient id="panel" x1="1098" y1="170" x2="1488" y2="734" gradientUnits="userSpaceOnUse">
      <stop stop-color="#0F172A"/>
      <stop offset="1" stop-color="#1E2F4E"/>
    </linearGradient>
    <linearGradient id="focusAccent" x1="1186" y1="264" x2="1388" y2="470" gradientUnits="userSpaceOnUse">
      <stop stop-color="#FFC888"/>
      <stop offset="1" stop-color="#FF8C6A"/>
    </linearGradient>
    <filter id="shadow" x="0" y="0" width="1600" height="900" filterUnits="userSpaceOnUse" color-interpolation-filters="sRGB">
      <feDropShadow dx="0" dy="22" stdDeviation="26" flood-color="#1E293B" flood-opacity="0.12"/>
    </filter>
  </defs>

  <rect width="1600" height="900" rx="40" fill="url(#bg)"/>
  <circle cx="1358" cy="140" r="120" fill="#E2EBFF"/>
  <circle cx="1486" cy="744" r="150" fill="#FFE5CC"/>
  <circle cx="174" cy="748" r="102" fill="#E3F7EA"/>

  <g filter="url(#shadow)">
    <rect x="88" y="108" width="952" height="684" rx="34" fill="url(#card)"/>
  </g>
  <rect x="88" y="108" width="952" height="84" rx="34" fill="#EAF2FB"/>
  <circle cx="146" cy="150" r="10" fill="#FB7185"/>
  <circle cx="178" cy="150" r="10" fill="#FBBF24"/>
  <circle cx="210" cy="150" r="10" fill="#34D399"/>

  <rect x="138" y="236" width="394" height="416" rx="28" fill="#F8FBFF"/>
  <rect x="176" y="278" width="188" height="20" rx="10" fill="#A8C1E8"/>
  <rect x="176" y="316" width="146" height="16" rx="8" fill="#D7E4F5"/>

  <rect x="176" y="394" width="316" height="188" rx="24" fill="#FFFFFF"/>
  <rect x="208" y="426" width="252" height="20" rx="10" fill="#E4ECF8"/>
  <rect x="208" y="462" width="210" height="16" rx="8" fill="#EEF3FB"/>
  <rect x="208" y="498" width="148" height="16" rx="8" fill="#EEF3FB"/>
  <circle cx="438" cy="514" r="36" fill="#DDEAFE"/>
  <path d="M426 514L438 526L456 500" stroke="#2563EB" stroke-width="10" stroke-linecap="round" stroke-linejoin="round"/>

  <rect x="556" y="236" width="432" height="416" rx="28" fill="#FFFFFF"/>
  <rect x="598" y="280" width="184" height="18" rx="9" fill="#98BBF5"/>
  <rect x="598" y="316" width="150" height="16" rx="8" fill="#D4E0F2"/>

  <rect x="598" y="390" width="350" height="172" rx="24" fill="#F7FAFF"/>
  <rect x="628" y="420" width="94" height="94" rx="20" fill="#DDEAFE"/>
  <path d="M650 440H700" stroke="#5B8CFF" stroke-width="12" stroke-linecap="round"/>
  <path d="M650 468H700" stroke="#5B8CFF" stroke-width="12" stroke-linecap="round"/>
  <path d="M650 496H686" stroke="#5B8CFF" stroke-width="12" stroke-linecap="round"/>
  <rect x="752" y="420" width="166" height="18" rx="9" fill="#FFD4B0"/>
  <rect x="752" y="454" width="142" height="18" rx="9" fill="#FFE5D2"/>
  <rect x="752" y="488" width="118" height="18" rx="9" fill="#FFE5D2"/>
  <rect x="752" y="530" width="96" height="18" rx="9" fill="#D9F3D5"/>

  <g filter="url(#shadow)">
    <rect x="1096" y="172" width="392" height="560" rx="34" fill="url(#panel)"/>
  </g>
  <rect x="1140" y="230" width="220" height="24" rx="12" fill="#8FB6FF"/>
  <rect x="1140" y="272" width="258" height="14" rx="7" fill="#AAB9D7"/>
  <rect x="1140" y="306" width="206" height="14" rx="7" fill="#AAB9D7"/>

  <circle cx="1288" cy="392" r="94" fill="url(#focusAccent)"/>
  <rect x="1232" y="336" width="112" height="112" rx="28" fill="#FFF6EE"/>
  <path d="M1260 360H1316" stroke="#FF8C6A" stroke-width="12" stroke-linecap="round"/>
  <path d="M1260 392H1302" stroke="#FF8C6A" stroke-width="12" stroke-linecap="round"/>
  <path d="M1260 424H1288" stroke="#FF8C6A" stroke-width="12" stroke-linecap="round"/>

  <rect x="1140" y="548" width="304" height="44" rx="22" fill="#24344F"/>
  <rect x="1168" y="561" width="116" height="18" rx="9" fill="#D1DDF2"/>
  <rect x="1298" y="561" width="110" height="18" rx="9" fill="#9DC3FF"/>

  <text x="132" y="710" fill="#0F172A" font-family="'Segoe UI', 'Microsoft YaHei', sans-serif" font-size="50" font-weight="700">
    数字断舍离工作流
  </text>
  <text x="132" y="770" fill="#334155" font-family="'Segoe UI', 'Microsoft YaHei', sans-serif" font-size="30" font-weight="500">
    Windows 原生方案 · 更少干扰 · 更快进入专注状态
  </text>
</svg>
