<svg xmlns="http://www.w3.org/2000/svg" width="1200" height="630" viewBox="0 0 1200 630" role="img" aria-labelledby="title desc">
  <title id="title">SEO Guide Navigation Cover</title>
  <desc id="desc">个人博客 SEO 专题导航文章封面</desc>
  <defs>
    <linearGradient id="bg" x1="0" y1="0" x2="1" y2="1">
      <stop offset="0%" stop-color="#f4efe6"/>
      <stop offset="48%" stop-color="#e4edf8"/>
      <stop offset="100%" stop-color="#dcefe5"/>
    </linearGradient>
    <linearGradient id="panel" x1="0" y1="0" x2="1" y2="1">
      <stop offset="0%" stop-color="#1e2430"/>
      <stop offset="100%" stop-color="#324764"/>
    </linearGradient>
    <linearGradient id="line" x1="0" y1="0" x2="1" y2="1">
      <stop offset="0%" stop-color="#8bb3ff"/>
      <stop offset="100%" stop-color="#7ae0b5"/>
    </linearGradient>
  </defs>
  <rect width="1200" height="630" fill="url(#bg)"/>
  <circle cx="1038" cy="120" r="136" fill="#ffffff" fill-opacity="0.24"/>
  <circle cx="176" cy="512" r="162" fill="#9cb49a" fill-opacity="0.12"/>
  <rect x="78" y="76" width="1044" height="478" rx="34" fill="url(#panel)"/>
  <rect x="128" y="128" width="286" height="34" rx="17" fill="#e7e4d8" fill-opacity="0.94"/>
  <rect x="128" y="184" width="468" height="22" rx="11" fill="#d5d8df" fill-opacity="0.88"/>
  <rect x="128" y="224" width="392" height="22" rx="11" fill="#d5d8df" fill-opacity="0.72"/>
  <rect x="128" y="298" width="290" height="188" rx="24" fill="#f0ecdf"/>
  <rect x="454" y="298" width="290" height="188" rx="24" fill="#f0ecdf" fill-opacity="0.88"/>
  <rect x="780" y="298" width="290" height="188" rx="24" fill="#20334b"/>
  <g fill="#1f2631">
    <rect x="164" y="332" width="104" height="12" rx="6"/>
    <rect x="164" y="356" width="140" height="10" rx="5"/>
    <rect x="164" y="378" width="118" height="10" rx="5"/>
    <rect x="490" y="332" width="104" height="12" rx="6"/>
    <rect x="490" y="356" width="142" height="10" rx="5"/>
    <rect x="490" y="378" width="120" height="10" rx="5"/>
  </g>
  <rect x="822" y="332" width="118" height="10" rx="5" fill="#dce8fb"/>
  <rect x="822" y="354" width="90" height="10" rx="5" fill="#bdd5f3"/>
  <rect x="822" y="408" width="78" height="12" rx="6" fill="#dce8fb"/>
  <path d="M820 434C858 408 892 374 928 336C958 304 994 274 1034 246" stroke="url(#line)" stroke-width="16" stroke-linecap="round"/>
  <circle cx="820" cy="434" r="13" fill="#8bb3ff"/>
  <circle cx="928" cy="336" r="13" fill="#83c6e8"/>
  <circle cx="1034" cy="246" r="13" fill="#7ae0b5"/>
  <text x="780" y="154" fill="#fff7e8" font-size="66" font-family="Georgia, 'Times New Roman', serif" font-weight="700">SEO</text>
  <text x="780" y="206" fill="#dce7f2" font-size="28" font-family="'Segoe UI', Arial, sans-serif">Topic Guide</text>
  <rect x="78" y="570" width="1044" height="30" rx="15" fill="#ffffff" fill-opacity="0.72"/>
</svg>
