<svg xmlns="http://www.w3.org/2000/svg" width="1200" height="630" viewBox="0 0 1200 630" role="img" aria-labelledby="title desc">
  <title id="title">SEO002 Cover</title>
  <desc id="desc">个人博客首页 SEO 文案文章封面</desc>
  <defs>
    <linearGradient id="bg" x1="0" y1="0" x2="1" y2="1">
      <stop offset="0%" stop-color="#f6efe3"/>
      <stop offset="45%" stop-color="#e8dcc6"/>
      <stop offset="100%" stop-color="#d4c1a3"/>
    </linearGradient>
    <linearGradient id="panel" x1="0" y1="0" x2="1" y2="1">
      <stop offset="0%" stop-color="#20252d"/>
      <stop offset="100%" stop-color="#3a4658"/>
    </linearGradient>
  </defs>
  <rect width="1200" height="630" fill="url(#bg)"/>
  <circle cx="1030" cy="120" r="140" fill="#ffffff" fill-opacity="0.28"/>
  <circle cx="190" cy="510" r="170" fill="#9b7b4f" fill-opacity="0.12"/>
  <rect x="82" y="84" width="1036" height="462" rx="34" fill="url(#panel)"/>
  <rect x="132" y="138" width="420" height="34" rx="17" fill="#e9d7b0" fill-opacity="0.92"/>
  <rect x="132" y="198" width="640" height="24" rx="12" fill="#d7c39a" fill-opacity="0.88"/>
  <rect x="132" y="244" width="566" height="24" rx="12" fill="#d7c39a" fill-opacity="0.76"/>
  <rect x="132" y="290" width="495" height="24" rx="12" fill="#d7c39a" fill-opacity="0.62"/>
  <rect x="132" y="376" width="210" height="86" rx="20" fill="#f2e6ce"/>
  <rect x="368" y="376" width="210" height="86" rx="20" fill="#f2e6ce" fill-opacity="0.84"/>
  <rect x="604" y="376" width="210" height="86" rx="20" fill="#f2e6ce" fill-opacity="0.68"/>
  <g fill="#1d2430">
    <rect x="172" y="400" width="130" height="10" rx="5"/>
    <rect x="172" y="420" width="92" height="10" rx="5"/>
    <rect x="408" y="400" width="130" height="10" rx="5"/>
    <rect x="408" y="420" width="98" height="10" rx="5"/>
    <rect x="644" y="400" width="130" height="10" rx="5"/>
    <rect x="644" y="420" width="90" height="10" rx="5"/>
  </g>
  <text x="836" y="396" fill="#fff7e8" font-size="78" font-family="Georgia, 'Times New Roman', serif" font-weight="700">SEO</text>
  <text x="836" y="456" fill="#e9d7b0" font-size="34" font-family="'Segoe UI', Arial, sans-serif">Home Copy</text>
</svg>
